<mxfile host="app.diagrams.net" agent="Mozilla/5.0 (Windows NT 10.0; Win64; x64) AppleWebKit/537.36 (KHTML, like Gecko) Chrome/136.0.0.0 Safari/537.36" version="27.0.9">
  <diagram name="Pagina-1" id="x3rmndG4uMQQdHzhpsFC">
    <mxGraphModel dx="2009" dy="743" grid="1" gridSize="9" guides="1" tooltips="1" connect="1" arrows="1" fold="1" page="1" pageScale="1" pageWidth="583" pageHeight="827" math="0" shadow="0">
      <root>
        <mxCell id="0" />
        <mxCell id="1" parent="0" />
        <mxCell id="ZtmMLVxZnoEotdnuMt8N-93" value="Cliente" style="shape=table;startSize=30;container=1;collapsible=1;childLayout=tableLayout;fixedRows=1;rowLines=0;fontStyle=1;align=center;resizeLast=1;html=1;fillColor=#dae8fc;strokeColor=#6c8ebf;" vertex="1" parent="1">
          <mxGeometry x="108" y="153" width="180" height="269" as="geometry" />
        </mxCell>
        <mxCell id="ZtmMLVxZnoEotdnuMt8N-94" value="" style="shape=tableRow;horizontal=0;startSize=0;swimlaneHead=0;swimlaneBody=0;fillColor=none;collapsible=0;dropTarget=0;points=[[0,0.5],[1,0.5]];portConstraint=eastwest;top=0;left=0;right=0;bottom=1;" vertex="1" parent="ZtmMLVxZnoEotdnuMt8N-93">
          <mxGeometry y="30" width="180" height="30" as="geometry" />
        </mxCell>
        <mxCell id="ZtmMLVxZnoEotdnuMt8N-95" value="PK" style="shape=partialRectangle;connectable=0;fillColor=#fff2cc;top=0;left=0;bottom=0;right=0;fontStyle=1;overflow=hidden;whiteSpace=wrap;html=1;strokeColor=#d6b656;" vertex="1" parent="ZtmMLVxZnoEotdnuMt8N-94">
          <mxGeometry width="30" height="30" as="geometry">
            <mxRectangle width="30" height="30" as="alternateBounds" />
          </mxGeometry>
        </mxCell>
        <mxCell id="ZtmMLVxZnoEotdnuMt8N-96" value="ID_Cliente" style="shape=partialRectangle;connectable=0;fillColor=#fff2cc;top=0;left=0;bottom=0;right=0;align=left;spacingLeft=6;fontStyle=5;overflow=hidden;whiteSpace=wrap;html=1;strokeColor=#d6b656;" vertex="1" parent="ZtmMLVxZnoEotdnuMt8N-94">
          <mxGeometry x="30" width="150" height="30" as="geometry">
            <mxRectangle width="150" height="30" as="alternateBounds" />
          </mxGeometry>
        </mxCell>
        <mxCell id="ZtmMLVxZnoEotdnuMt8N-97" value="" style="shape=tableRow;horizontal=0;startSize=0;swimlaneHead=0;swimlaneBody=0;fillColor=none;collapsible=0;dropTarget=0;points=[[0,0.5],[1,0.5]];portConstraint=eastwest;top=0;left=0;right=0;bottom=0;" vertex="1" parent="ZtmMLVxZnoEotdnuMt8N-93">
          <mxGeometry y="60" width="180" height="30" as="geometry" />
        </mxCell>
        <mxCell id="ZtmMLVxZnoEotdnuMt8N-98" value="" style="shape=partialRectangle;connectable=0;fillColor=none;top=0;left=0;bottom=0;right=0;editable=1;overflow=hidden;whiteSpace=wrap;html=1;" vertex="1" parent="ZtmMLVxZnoEotdnuMt8N-97">
          <mxGeometry width="30" height="30" as="geometry">
            <mxRectangle width="30" height="30" as="alternateBounds" />
          </mxGeometry>
        </mxCell>
        <mxCell id="ZtmMLVxZnoEotdnuMt8N-99" value="Nome" style="shape=partialRectangle;connectable=0;fillColor=none;top=0;left=0;bottom=0;right=0;align=left;spacingLeft=6;overflow=hidden;whiteSpace=wrap;html=1;" vertex="1" parent="ZtmMLVxZnoEotdnuMt8N-97">
          <mxGeometry x="30" width="150" height="30" as="geometry">
            <mxRectangle width="150" height="30" as="alternateBounds" />
          </mxGeometry>
        </mxCell>
        <mxCell id="ZtmMLVxZnoEotdnuMt8N-100" value="" style="shape=tableRow;horizontal=0;startSize=0;swimlaneHead=0;swimlaneBody=0;fillColor=none;collapsible=0;dropTarget=0;points=[[0,0.5],[1,0.5]];portConstraint=eastwest;top=0;left=0;right=0;bottom=0;" vertex="1" parent="ZtmMLVxZnoEotdnuMt8N-93">
          <mxGeometry y="90" width="180" height="30" as="geometry" />
        </mxCell>
        <mxCell id="ZtmMLVxZnoEotdnuMt8N-101" value="" style="shape=partialRectangle;connectable=0;fillColor=none;top=0;left=0;bottom=0;right=0;editable=1;overflow=hidden;whiteSpace=wrap;html=1;" vertex="1" parent="ZtmMLVxZnoEotdnuMt8N-100">
          <mxGeometry width="30" height="30" as="geometry">
            <mxRectangle width="30" height="30" as="alternateBounds" />
          </mxGeometry>
        </mxCell>
        <mxCell id="ZtmMLVxZnoEotdnuMt8N-102" value="Cognome" style="shape=partialRectangle;connectable=0;fillColor=none;top=0;left=0;bottom=0;right=0;align=left;spacingLeft=6;overflow=hidden;whiteSpace=wrap;html=1;" vertex="1" parent="ZtmMLVxZnoEotdnuMt8N-100">
          <mxGeometry x="30" width="150" height="30" as="geometry">
            <mxRectangle width="150" height="30" as="alternateBounds" />
          </mxGeometry>
        </mxCell>
        <mxCell id="ZtmMLVxZnoEotdnuMt8N-103" value="" style="shape=tableRow;horizontal=0;startSize=0;swimlaneHead=0;swimlaneBody=0;fillColor=none;collapsible=0;dropTarget=0;points=[[0,0.5],[1,0.5]];portConstraint=eastwest;top=0;left=0;right=0;bottom=0;" vertex="1" parent="ZtmMLVxZnoEotdnuMt8N-93">
          <mxGeometry y="120" width="180" height="29" as="geometry" />
        </mxCell>
        <mxCell id="ZtmMLVxZnoEotdnuMt8N-104" value="" style="shape=partialRectangle;connectable=0;fillColor=none;top=0;left=0;bottom=0;right=0;editable=1;overflow=hidden;whiteSpace=wrap;html=1;" vertex="1" parent="ZtmMLVxZnoEotdnuMt8N-103">
          <mxGeometry width="30" height="29" as="geometry">
            <mxRectangle width="30" height="29" as="alternateBounds" />
          </mxGeometry>
        </mxCell>
        <mxCell id="ZtmMLVxZnoEotdnuMt8N-105" value="Data_di_nascita" style="shape=partialRectangle;connectable=0;fillColor=none;top=0;left=0;bottom=0;right=0;align=left;spacingLeft=6;overflow=hidden;whiteSpace=wrap;html=1;" vertex="1" parent="ZtmMLVxZnoEotdnuMt8N-103">
          <mxGeometry x="30" width="150" height="29" as="geometry">
            <mxRectangle width="150" height="29" as="alternateBounds" />
          </mxGeometry>
        </mxCell>
        <mxCell id="ZtmMLVxZnoEotdnuMt8N-106" style="shape=tableRow;horizontal=0;startSize=0;swimlaneHead=0;swimlaneBody=0;fillColor=none;collapsible=0;dropTarget=0;points=[[0,0.5],[1,0.5]];portConstraint=eastwest;top=0;left=0;right=0;bottom=0;" vertex="1" parent="ZtmMLVxZnoEotdnuMt8N-93">
          <mxGeometry y="149" width="180" height="30" as="geometry" />
        </mxCell>
        <mxCell id="ZtmMLVxZnoEotdnuMt8N-107" style="shape=partialRectangle;connectable=0;fillColor=none;top=0;left=0;bottom=0;right=0;editable=1;overflow=hidden;whiteSpace=wrap;html=1;" vertex="1" parent="ZtmMLVxZnoEotdnuMt8N-106">
          <mxGeometry width="30" height="30" as="geometry">
            <mxRectangle width="30" height="30" as="alternateBounds" />
          </mxGeometry>
        </mxCell>
        <mxCell id="ZtmMLVxZnoEotdnuMt8N-108" value="Email" style="shape=partialRectangle;connectable=0;fillColor=none;top=0;left=0;bottom=0;right=0;align=left;spacingLeft=6;overflow=hidden;whiteSpace=wrap;html=1;" vertex="1" parent="ZtmMLVxZnoEotdnuMt8N-106">
          <mxGeometry x="30" width="150" height="30" as="geometry">
            <mxRectangle width="150" height="30" as="alternateBounds" />
          </mxGeometry>
        </mxCell>
        <mxCell id="ZtmMLVxZnoEotdnuMt8N-109" style="shape=tableRow;horizontal=0;startSize=0;swimlaneHead=0;swimlaneBody=0;fillColor=none;collapsible=0;dropTarget=0;points=[[0,0.5],[1,0.5]];portConstraint=eastwest;top=0;left=0;right=0;bottom=0;" vertex="1" parent="ZtmMLVxZnoEotdnuMt8N-93">
          <mxGeometry y="179" width="180" height="30" as="geometry" />
        </mxCell>
        <mxCell id="ZtmMLVxZnoEotdnuMt8N-110" style="shape=partialRectangle;connectable=0;fillColor=none;top=0;left=0;bottom=0;right=0;editable=1;overflow=hidden;whiteSpace=wrap;html=1;" vertex="1" parent="ZtmMLVxZnoEotdnuMt8N-109">
          <mxGeometry width="30" height="30" as="geometry">
            <mxRectangle width="30" height="30" as="alternateBounds" />
          </mxGeometry>
        </mxCell>
        <mxCell id="ZtmMLVxZnoEotdnuMt8N-111" value="Telefono" style="shape=partialRectangle;connectable=0;fillColor=none;top=0;left=0;bottom=0;right=0;align=left;spacingLeft=6;overflow=hidden;whiteSpace=wrap;html=1;" vertex="1" parent="ZtmMLVxZnoEotdnuMt8N-109">
          <mxGeometry x="30" width="150" height="30" as="geometry">
            <mxRectangle width="150" height="30" as="alternateBounds" />
          </mxGeometry>
        </mxCell>
        <mxCell id="ZtmMLVxZnoEotdnuMt8N-112" style="shape=tableRow;horizontal=0;startSize=0;swimlaneHead=0;swimlaneBody=0;fillColor=none;collapsible=0;dropTarget=0;points=[[0,0.5],[1,0.5]];portConstraint=eastwest;top=0;left=0;right=0;bottom=0;" vertex="1" parent="ZtmMLVxZnoEotdnuMt8N-93">
          <mxGeometry y="209" width="180" height="30" as="geometry" />
        </mxCell>
        <mxCell id="ZtmMLVxZnoEotdnuMt8N-113" style="shape=partialRectangle;connectable=0;fillColor=none;top=0;left=0;bottom=0;right=0;editable=1;overflow=hidden;whiteSpace=wrap;html=1;" vertex="1" parent="ZtmMLVxZnoEotdnuMt8N-112">
          <mxGeometry width="30" height="30" as="geometry">
            <mxRectangle width="30" height="30" as="alternateBounds" />
          </mxGeometry>
        </mxCell>
        <mxCell id="ZtmMLVxZnoEotdnuMt8N-114" value="Numero_Patente" style="shape=partialRectangle;connectable=0;fillColor=none;top=0;left=0;bottom=0;right=0;align=left;spacingLeft=6;overflow=hidden;whiteSpace=wrap;html=1;" vertex="1" parent="ZtmMLVxZnoEotdnuMt8N-112">
          <mxGeometry x="30" width="150" height="30" as="geometry">
            <mxRectangle width="150" height="30" as="alternateBounds" />
          </mxGeometry>
        </mxCell>
        <mxCell id="ZtmMLVxZnoEotdnuMt8N-115" style="shape=tableRow;horizontal=0;startSize=0;swimlaneHead=0;swimlaneBody=0;fillColor=none;collapsible=0;dropTarget=0;points=[[0,0.5],[1,0.5]];portConstraint=eastwest;top=0;left=0;right=0;bottom=0;" vertex="1" parent="ZtmMLVxZnoEotdnuMt8N-93">
          <mxGeometry y="239" width="180" height="30" as="geometry" />
        </mxCell>
        <mxCell id="ZtmMLVxZnoEotdnuMt8N-116" style="shape=partialRectangle;connectable=0;fillColor=none;top=0;left=0;bottom=0;right=0;editable=1;overflow=hidden;whiteSpace=wrap;html=1;" vertex="1" parent="ZtmMLVxZnoEotdnuMt8N-115">
          <mxGeometry width="30" height="30" as="geometry">
            <mxRectangle width="30" height="30" as="alternateBounds" />
          </mxGeometry>
        </mxCell>
        <mxCell id="ZtmMLVxZnoEotdnuMt8N-117" value="Patente_Scadenza" style="shape=partialRectangle;connectable=0;fillColor=none;top=0;left=0;bottom=0;right=0;align=left;spacingLeft=6;overflow=hidden;whiteSpace=wrap;html=1;" vertex="1" parent="ZtmMLVxZnoEotdnuMt8N-115">
          <mxGeometry x="30" width="150" height="30" as="geometry">
            <mxRectangle width="150" height="30" as="alternateBounds" />
          </mxGeometry>
        </mxCell>
        <mxCell id="ZtmMLVxZnoEotdnuMt8N-118" value="Veicoli" style="shape=table;startSize=30;container=1;collapsible=1;childLayout=tableLayout;fixedRows=1;rowLines=0;fontStyle=1;align=center;resizeLast=1;html=1;fillColor=#dae8fc;strokeColor=#6c8ebf;" vertex="1" parent="1">
          <mxGeometry x="693" y="144" width="180" height="264" as="geometry" />
        </mxCell>
        <mxCell id="ZtmMLVxZnoEotdnuMt8N-119" value="" style="shape=tableRow;horizontal=0;startSize=0;swimlaneHead=0;swimlaneBody=0;fillColor=none;collapsible=0;dropTarget=0;points=[[0,0.5],[1,0.5]];portConstraint=eastwest;top=0;left=0;right=0;bottom=1;" vertex="1" parent="ZtmMLVxZnoEotdnuMt8N-118">
          <mxGeometry y="30" width="180" height="30" as="geometry" />
        </mxCell>
        <mxCell id="ZtmMLVxZnoEotdnuMt8N-120" value="PK" style="shape=partialRectangle;connectable=0;fillColor=#fff2cc;top=0;left=0;bottom=0;right=0;fontStyle=1;overflow=hidden;whiteSpace=wrap;html=1;strokeColor=#d6b656;" vertex="1" parent="ZtmMLVxZnoEotdnuMt8N-119">
          <mxGeometry width="30" height="30" as="geometry">
            <mxRectangle width="30" height="30" as="alternateBounds" />
          </mxGeometry>
        </mxCell>
        <mxCell id="ZtmMLVxZnoEotdnuMt8N-121" value="Targa" style="shape=partialRectangle;connectable=0;fillColor=#fff2cc;top=0;left=0;bottom=0;right=0;align=left;spacingLeft=6;fontStyle=5;overflow=hidden;whiteSpace=wrap;html=1;strokeColor=#d6b656;" vertex="1" parent="ZtmMLVxZnoEotdnuMt8N-119">
          <mxGeometry x="30" width="150" height="30" as="geometry">
            <mxRectangle width="150" height="30" as="alternateBounds" />
          </mxGeometry>
        </mxCell>
        <mxCell id="ZtmMLVxZnoEotdnuMt8N-185" style="shape=tableRow;horizontal=0;startSize=0;swimlaneHead=0;swimlaneBody=0;fillColor=none;collapsible=0;dropTarget=0;points=[[0,0.5],[1,0.5]];portConstraint=eastwest;top=0;left=0;right=0;bottom=0;" vertex="1" parent="ZtmMLVxZnoEotdnuMt8N-118">
          <mxGeometry y="60" width="180" height="30" as="geometry" />
        </mxCell>
        <mxCell id="ZtmMLVxZnoEotdnuMt8N-186" value="FK" style="shape=partialRectangle;connectable=0;fillColor=#d5e8d4;top=0;left=0;bottom=0;right=0;editable=1;overflow=hidden;whiteSpace=wrap;html=1;strokeColor=#82b366;" vertex="1" parent="ZtmMLVxZnoEotdnuMt8N-185">
          <mxGeometry width="30" height="30" as="geometry">
            <mxRectangle width="30" height="30" as="alternateBounds" />
          </mxGeometry>
        </mxCell>
        <mxCell id="ZtmMLVxZnoEotdnuMt8N-187" value="ID_Filiale" style="shape=partialRectangle;connectable=0;fillColor=#d5e8d4;top=0;left=0;bottom=0;right=0;align=left;spacingLeft=6;overflow=hidden;whiteSpace=wrap;html=1;strokeColor=#82b366;" vertex="1" parent="ZtmMLVxZnoEotdnuMt8N-185">
          <mxGeometry x="30" width="150" height="30" as="geometry">
            <mxRectangle width="150" height="30" as="alternateBounds" />
          </mxGeometry>
        </mxCell>
        <mxCell id="ZtmMLVxZnoEotdnuMt8N-122" value="" style="shape=tableRow;horizontal=0;startSize=0;swimlaneHead=0;swimlaneBody=0;fillColor=none;collapsible=0;dropTarget=0;points=[[0,0.5],[1,0.5]];portConstraint=eastwest;top=0;left=0;right=0;bottom=0;" vertex="1" parent="ZtmMLVxZnoEotdnuMt8N-118">
          <mxGeometry y="90" width="180" height="30" as="geometry" />
        </mxCell>
        <mxCell id="ZtmMLVxZnoEotdnuMt8N-123" value="" style="shape=partialRectangle;connectable=0;fillColor=none;top=0;left=0;bottom=0;right=0;editable=1;overflow=hidden;whiteSpace=wrap;html=1;" vertex="1" parent="ZtmMLVxZnoEotdnuMt8N-122">
          <mxGeometry width="30" height="30" as="geometry">
            <mxRectangle width="30" height="30" as="alternateBounds" />
          </mxGeometry>
        </mxCell>
        <mxCell id="ZtmMLVxZnoEotdnuMt8N-124" value="Brand" style="shape=partialRectangle;connectable=0;fillColor=none;top=0;left=0;bottom=0;right=0;align=left;spacingLeft=6;overflow=hidden;whiteSpace=wrap;html=1;" vertex="1" parent="ZtmMLVxZnoEotdnuMt8N-122">
          <mxGeometry x="30" width="150" height="30" as="geometry">
            <mxRectangle width="150" height="30" as="alternateBounds" />
          </mxGeometry>
        </mxCell>
        <mxCell id="ZtmMLVxZnoEotdnuMt8N-125" value="" style="shape=tableRow;horizontal=0;startSize=0;swimlaneHead=0;swimlaneBody=0;fillColor=none;collapsible=0;dropTarget=0;points=[[0,0.5],[1,0.5]];portConstraint=eastwest;top=0;left=0;right=0;bottom=0;" vertex="1" parent="ZtmMLVxZnoEotdnuMt8N-118">
          <mxGeometry y="120" width="180" height="30" as="geometry" />
        </mxCell>
        <mxCell id="ZtmMLVxZnoEotdnuMt8N-126" value="" style="shape=partialRectangle;connectable=0;fillColor=none;top=0;left=0;bottom=0;right=0;editable=1;overflow=hidden;whiteSpace=wrap;html=1;" vertex="1" parent="ZtmMLVxZnoEotdnuMt8N-125">
          <mxGeometry width="30" height="30" as="geometry">
            <mxRectangle width="30" height="30" as="alternateBounds" />
          </mxGeometry>
        </mxCell>
        <mxCell id="ZtmMLVxZnoEotdnuMt8N-127" value="Modello" style="shape=partialRectangle;connectable=0;fillColor=none;top=0;left=0;bottom=0;right=0;align=left;spacingLeft=6;overflow=hidden;whiteSpace=wrap;html=1;" vertex="1" parent="ZtmMLVxZnoEotdnuMt8N-125">
          <mxGeometry x="30" width="150" height="30" as="geometry">
            <mxRectangle width="150" height="30" as="alternateBounds" />
          </mxGeometry>
        </mxCell>
        <mxCell id="ZtmMLVxZnoEotdnuMt8N-128" value="" style="shape=tableRow;horizontal=0;startSize=0;swimlaneHead=0;swimlaneBody=0;fillColor=none;collapsible=0;dropTarget=0;points=[[0,0.5],[1,0.5]];portConstraint=eastwest;top=0;left=0;right=0;bottom=0;" vertex="1" parent="ZtmMLVxZnoEotdnuMt8N-118">
          <mxGeometry y="150" width="180" height="24" as="geometry" />
        </mxCell>
        <mxCell id="ZtmMLVxZnoEotdnuMt8N-129" value="" style="shape=partialRectangle;connectable=0;fillColor=none;top=0;left=0;bottom=0;right=0;editable=1;overflow=hidden;whiteSpace=wrap;html=1;" vertex="1" parent="ZtmMLVxZnoEotdnuMt8N-128">
          <mxGeometry width="30" height="24" as="geometry">
            <mxRectangle width="30" height="24" as="alternateBounds" />
          </mxGeometry>
        </mxCell>
        <mxCell id="ZtmMLVxZnoEotdnuMt8N-130" value="Anno" style="shape=partialRectangle;connectable=0;fillColor=none;top=0;left=0;bottom=0;right=0;align=left;spacingLeft=6;overflow=hidden;whiteSpace=wrap;html=1;" vertex="1" parent="ZtmMLVxZnoEotdnuMt8N-128">
          <mxGeometry x="30" width="150" height="24" as="geometry">
            <mxRectangle width="150" height="24" as="alternateBounds" />
          </mxGeometry>
        </mxCell>
        <mxCell id="ZtmMLVxZnoEotdnuMt8N-131" style="shape=tableRow;horizontal=0;startSize=0;swimlaneHead=0;swimlaneBody=0;fillColor=none;collapsible=0;dropTarget=0;points=[[0,0.5],[1,0.5]];portConstraint=eastwest;top=0;left=0;right=0;bottom=0;" vertex="1" parent="ZtmMLVxZnoEotdnuMt8N-118">
          <mxGeometry y="174" width="180" height="30" as="geometry" />
        </mxCell>
        <mxCell id="ZtmMLVxZnoEotdnuMt8N-132" style="shape=partialRectangle;connectable=0;fillColor=none;top=0;left=0;bottom=0;right=0;editable=1;overflow=hidden;whiteSpace=wrap;html=1;" vertex="1" parent="ZtmMLVxZnoEotdnuMt8N-131">
          <mxGeometry width="30" height="30" as="geometry">
            <mxRectangle width="30" height="30" as="alternateBounds" />
          </mxGeometry>
        </mxCell>
        <mxCell id="ZtmMLVxZnoEotdnuMt8N-133" value="Categoria" style="shape=partialRectangle;connectable=0;fillColor=none;top=0;left=0;bottom=0;right=0;align=left;spacingLeft=6;overflow=hidden;whiteSpace=wrap;html=1;" vertex="1" parent="ZtmMLVxZnoEotdnuMt8N-131">
          <mxGeometry x="30" width="150" height="30" as="geometry">
            <mxRectangle width="150" height="30" as="alternateBounds" />
          </mxGeometry>
        </mxCell>
        <mxCell id="ZtmMLVxZnoEotdnuMt8N-134" style="shape=tableRow;horizontal=0;startSize=0;swimlaneHead=0;swimlaneBody=0;fillColor=none;collapsible=0;dropTarget=0;points=[[0,0.5],[1,0.5]];portConstraint=eastwest;top=0;left=0;right=0;bottom=0;" vertex="1" parent="ZtmMLVxZnoEotdnuMt8N-118">
          <mxGeometry y="204" width="180" height="30" as="geometry" />
        </mxCell>
        <mxCell id="ZtmMLVxZnoEotdnuMt8N-135" style="shape=partialRectangle;connectable=0;fillColor=none;top=0;left=0;bottom=0;right=0;editable=1;overflow=hidden;whiteSpace=wrap;html=1;" vertex="1" parent="ZtmMLVxZnoEotdnuMt8N-134">
          <mxGeometry width="30" height="30" as="geometry">
            <mxRectangle width="30" height="30" as="alternateBounds" />
          </mxGeometry>
        </mxCell>
        <mxCell id="ZtmMLVxZnoEotdnuMt8N-136" value="Chilometraggio" style="shape=partialRectangle;connectable=0;fillColor=none;top=0;left=0;bottom=0;right=0;align=left;spacingLeft=6;overflow=hidden;whiteSpace=wrap;html=1;" vertex="1" parent="ZtmMLVxZnoEotdnuMt8N-134">
          <mxGeometry x="30" width="150" height="30" as="geometry">
            <mxRectangle width="150" height="30" as="alternateBounds" />
          </mxGeometry>
        </mxCell>
        <mxCell id="ZtmMLVxZnoEotdnuMt8N-137" style="shape=tableRow;horizontal=0;startSize=0;swimlaneHead=0;swimlaneBody=0;fillColor=none;collapsible=0;dropTarget=0;points=[[0,0.5],[1,0.5]];portConstraint=eastwest;top=0;left=0;right=0;bottom=0;" vertex="1" parent="ZtmMLVxZnoEotdnuMt8N-118">
          <mxGeometry y="234" width="180" height="30" as="geometry" />
        </mxCell>
        <mxCell id="ZtmMLVxZnoEotdnuMt8N-138" style="shape=partialRectangle;connectable=0;fillColor=#ffe6cc;top=0;left=0;bottom=0;right=0;editable=1;overflow=hidden;whiteSpace=wrap;html=1;strokeColor=#d79b00;" vertex="1" parent="ZtmMLVxZnoEotdnuMt8N-137">
          <mxGeometry width="30" height="30" as="geometry">
            <mxRectangle width="30" height="30" as="alternateBounds" />
          </mxGeometry>
        </mxCell>
        <mxCell id="ZtmMLVxZnoEotdnuMt8N-139" value="Stato*" style="shape=partialRectangle;connectable=0;fillColor=#ffe6cc;top=0;left=0;bottom=0;right=0;align=left;spacingLeft=6;overflow=hidden;whiteSpace=wrap;html=1;strokeColor=#d79b00;" vertex="1" parent="ZtmMLVxZnoEotdnuMt8N-137">
          <mxGeometry x="30" width="150" height="30" as="geometry">
            <mxRectangle width="150" height="30" as="alternateBounds" />
          </mxGeometry>
        </mxCell>
        <mxCell id="ZtmMLVxZnoEotdnuMt8N-140" value="*Disponibile, In manutenzione, Noleggiata" style="text;html=1;align=center;verticalAlign=middle;resizable=0;points=[];autosize=1;strokeColor=#d79b00;fillColor=#ffe6cc;" vertex="1" parent="1">
          <mxGeometry x="108" y="522" width="243" height="27" as="geometry" />
        </mxCell>
        <mxCell id="ZtmMLVxZnoEotdnuMt8N-141" value="Noleggio" style="shape=table;startSize=30;container=1;collapsible=1;childLayout=tableLayout;fixedRows=1;rowLines=0;fontStyle=1;align=center;resizeLast=1;html=1;fillColor=#dae8fc;strokeColor=#6c8ebf;" vertex="1" parent="1">
          <mxGeometry x="441" y="153" width="180" height="240" as="geometry" />
        </mxCell>
        <mxCell id="ZtmMLVxZnoEotdnuMt8N-142" value="" style="shape=tableRow;horizontal=0;startSize=0;swimlaneHead=0;swimlaneBody=0;fillColor=none;collapsible=0;dropTarget=0;points=[[0,0.5],[1,0.5]];portConstraint=eastwest;top=0;left=0;right=0;bottom=1;" vertex="1" parent="ZtmMLVxZnoEotdnuMt8N-141">
          <mxGeometry y="30" width="180" height="30" as="geometry" />
        </mxCell>
        <mxCell id="ZtmMLVxZnoEotdnuMt8N-143" value="PK" style="shape=partialRectangle;connectable=0;fillColor=#fff2cc;top=0;left=0;bottom=0;right=0;fontStyle=1;overflow=hidden;whiteSpace=wrap;html=1;strokeColor=#d6b656;" vertex="1" parent="ZtmMLVxZnoEotdnuMt8N-142">
          <mxGeometry width="30" height="30" as="geometry">
            <mxRectangle width="30" height="30" as="alternateBounds" />
          </mxGeometry>
        </mxCell>
        <mxCell id="ZtmMLVxZnoEotdnuMt8N-144" value="Numero_Contratto" style="shape=partialRectangle;connectable=0;fillColor=#fff2cc;top=0;left=0;bottom=0;right=0;align=left;spacingLeft=6;fontStyle=5;overflow=hidden;whiteSpace=wrap;html=1;strokeColor=#d6b656;" vertex="1" parent="ZtmMLVxZnoEotdnuMt8N-142">
          <mxGeometry x="30" width="150" height="30" as="geometry">
            <mxRectangle width="150" height="30" as="alternateBounds" />
          </mxGeometry>
        </mxCell>
        <mxCell id="ZtmMLVxZnoEotdnuMt8N-172" style="shape=tableRow;horizontal=0;startSize=0;swimlaneHead=0;swimlaneBody=0;fillColor=none;collapsible=0;dropTarget=0;points=[[0,0.5],[1,0.5]];portConstraint=eastwest;top=0;left=0;right=0;bottom=0;" vertex="1" parent="ZtmMLVxZnoEotdnuMt8N-141">
          <mxGeometry y="60" width="180" height="30" as="geometry" />
        </mxCell>
        <mxCell id="ZtmMLVxZnoEotdnuMt8N-173" value="FK" style="shape=partialRectangle;connectable=0;fillColor=#d5e8d4;top=0;left=0;bottom=0;right=0;editable=1;overflow=hidden;whiteSpace=wrap;html=1;strokeColor=#82b366;" vertex="1" parent="ZtmMLVxZnoEotdnuMt8N-172">
          <mxGeometry width="30" height="30" as="geometry">
            <mxRectangle width="30" height="30" as="alternateBounds" />
          </mxGeometry>
        </mxCell>
        <mxCell id="ZtmMLVxZnoEotdnuMt8N-174" value="ID_Cliente" style="shape=partialRectangle;connectable=0;fillColor=#d5e8d4;top=0;left=0;bottom=0;right=0;align=left;spacingLeft=6;overflow=hidden;whiteSpace=wrap;html=1;strokeColor=#82b366;" vertex="1" parent="ZtmMLVxZnoEotdnuMt8N-172">
          <mxGeometry x="30" width="150" height="30" as="geometry">
            <mxRectangle width="150" height="30" as="alternateBounds" />
          </mxGeometry>
        </mxCell>
        <mxCell id="ZtmMLVxZnoEotdnuMt8N-175" style="shape=tableRow;horizontal=0;startSize=0;swimlaneHead=0;swimlaneBody=0;fillColor=none;collapsible=0;dropTarget=0;points=[[0,0.5],[1,0.5]];portConstraint=eastwest;top=0;left=0;right=0;bottom=0;" vertex="1" parent="ZtmMLVxZnoEotdnuMt8N-141">
          <mxGeometry y="90" width="180" height="30" as="geometry" />
        </mxCell>
        <mxCell id="ZtmMLVxZnoEotdnuMt8N-176" value="FK" style="shape=partialRectangle;connectable=0;fillColor=#d5e8d4;top=0;left=0;bottom=0;right=0;editable=1;overflow=hidden;whiteSpace=wrap;html=1;strokeColor=#82b366;" vertex="1" parent="ZtmMLVxZnoEotdnuMt8N-175">
          <mxGeometry width="30" height="30" as="geometry">
            <mxRectangle width="30" height="30" as="alternateBounds" />
          </mxGeometry>
        </mxCell>
        <mxCell id="ZtmMLVxZnoEotdnuMt8N-177" value="Targa" style="shape=partialRectangle;connectable=0;fillColor=#d5e8d4;top=0;left=0;bottom=0;right=0;align=left;spacingLeft=6;overflow=hidden;whiteSpace=wrap;html=1;strokeColor=#82b366;" vertex="1" parent="ZtmMLVxZnoEotdnuMt8N-175">
          <mxGeometry x="30" width="150" height="30" as="geometry">
            <mxRectangle width="150" height="30" as="alternateBounds" />
          </mxGeometry>
        </mxCell>
        <mxCell id="ZtmMLVxZnoEotdnuMt8N-145" value="" style="shape=tableRow;horizontal=0;startSize=0;swimlaneHead=0;swimlaneBody=0;fillColor=none;collapsible=0;dropTarget=0;points=[[0,0.5],[1,0.5]];portConstraint=eastwest;top=0;left=0;right=0;bottom=0;" vertex="1" parent="ZtmMLVxZnoEotdnuMt8N-141">
          <mxGeometry y="120" width="180" height="30" as="geometry" />
        </mxCell>
        <mxCell id="ZtmMLVxZnoEotdnuMt8N-146" value="" style="shape=partialRectangle;connectable=0;fillColor=none;top=0;left=0;bottom=0;right=0;editable=1;overflow=hidden;whiteSpace=wrap;html=1;" vertex="1" parent="ZtmMLVxZnoEotdnuMt8N-145">
          <mxGeometry width="30" height="30" as="geometry">
            <mxRectangle width="30" height="30" as="alternateBounds" />
          </mxGeometry>
        </mxCell>
        <mxCell id="ZtmMLVxZnoEotdnuMt8N-147" value="Data_inizio" style="shape=partialRectangle;connectable=0;fillColor=none;top=0;left=0;bottom=0;right=0;align=left;spacingLeft=6;overflow=hidden;whiteSpace=wrap;html=1;" vertex="1" parent="ZtmMLVxZnoEotdnuMt8N-145">
          <mxGeometry x="30" width="150" height="30" as="geometry">
            <mxRectangle width="150" height="30" as="alternateBounds" />
          </mxGeometry>
        </mxCell>
        <mxCell id="ZtmMLVxZnoEotdnuMt8N-148" value="" style="shape=tableRow;horizontal=0;startSize=0;swimlaneHead=0;swimlaneBody=0;fillColor=none;collapsible=0;dropTarget=0;points=[[0,0.5],[1,0.5]];portConstraint=eastwest;top=0;left=0;right=0;bottom=0;" vertex="1" parent="ZtmMLVxZnoEotdnuMt8N-141">
          <mxGeometry y="150" width="180" height="30" as="geometry" />
        </mxCell>
        <mxCell id="ZtmMLVxZnoEotdnuMt8N-149" value="" style="shape=partialRectangle;connectable=0;fillColor=none;top=0;left=0;bottom=0;right=0;editable=1;overflow=hidden;whiteSpace=wrap;html=1;" vertex="1" parent="ZtmMLVxZnoEotdnuMt8N-148">
          <mxGeometry width="30" height="30" as="geometry">
            <mxRectangle width="30" height="30" as="alternateBounds" />
          </mxGeometry>
        </mxCell>
        <mxCell id="ZtmMLVxZnoEotdnuMt8N-150" value="Data_fine_prevista" style="shape=partialRectangle;connectable=0;fillColor=none;top=0;left=0;bottom=0;right=0;align=left;spacingLeft=6;overflow=hidden;whiteSpace=wrap;html=1;" vertex="1" parent="ZtmMLVxZnoEotdnuMt8N-148">
          <mxGeometry x="30" width="150" height="30" as="geometry">
            <mxRectangle width="150" height="30" as="alternateBounds" />
          </mxGeometry>
        </mxCell>
        <mxCell id="ZtmMLVxZnoEotdnuMt8N-151" value="" style="shape=tableRow;horizontal=0;startSize=0;swimlaneHead=0;swimlaneBody=0;fillColor=none;collapsible=0;dropTarget=0;points=[[0,0.5],[1,0.5]];portConstraint=eastwest;top=0;left=0;right=0;bottom=0;" vertex="1" parent="ZtmMLVxZnoEotdnuMt8N-141">
          <mxGeometry y="180" width="180" height="30" as="geometry" />
        </mxCell>
        <mxCell id="ZtmMLVxZnoEotdnuMt8N-152" value="" style="shape=partialRectangle;connectable=0;fillColor=#e1d5e7;top=0;left=0;bottom=0;right=0;editable=1;overflow=hidden;whiteSpace=wrap;html=1;strokeColor=#9673a6;" vertex="1" parent="ZtmMLVxZnoEotdnuMt8N-151">
          <mxGeometry width="30" height="30" as="geometry">
            <mxRectangle width="30" height="30" as="alternateBounds" />
          </mxGeometry>
        </mxCell>
        <mxCell id="ZtmMLVxZnoEotdnuMt8N-153" value="Data_fine_effettiva*" style="shape=partialRectangle;connectable=0;fillColor=#e1d5e7;top=0;left=0;bottom=0;right=0;align=left;spacingLeft=6;overflow=hidden;whiteSpace=wrap;html=1;strokeColor=#9673a6;" vertex="1" parent="ZtmMLVxZnoEotdnuMt8N-151">
          <mxGeometry x="30" width="150" height="30" as="geometry">
            <mxRectangle width="150" height="30" as="alternateBounds" />
          </mxGeometry>
        </mxCell>
        <mxCell id="ZtmMLVxZnoEotdnuMt8N-154" style="shape=tableRow;horizontal=0;startSize=0;swimlaneHead=0;swimlaneBody=0;fillColor=none;collapsible=0;dropTarget=0;points=[[0,0.5],[1,0.5]];portConstraint=eastwest;top=0;left=0;right=0;bottom=0;" vertex="1" parent="ZtmMLVxZnoEotdnuMt8N-141">
          <mxGeometry y="210" width="180" height="30" as="geometry" />
        </mxCell>
        <mxCell id="ZtmMLVxZnoEotdnuMt8N-155" style="shape=partialRectangle;connectable=0;fillColor=none;top=0;left=0;bottom=0;right=0;editable=1;overflow=hidden;whiteSpace=wrap;html=1;" vertex="1" parent="ZtmMLVxZnoEotdnuMt8N-154">
          <mxGeometry width="30" height="30" as="geometry">
            <mxRectangle width="30" height="30" as="alternateBounds" />
          </mxGeometry>
        </mxCell>
        <mxCell id="ZtmMLVxZnoEotdnuMt8N-156" value="Costo_Totale" style="shape=partialRectangle;connectable=0;fillColor=none;top=0;left=0;bottom=0;right=0;align=left;spacingLeft=6;overflow=hidden;whiteSpace=wrap;html=1;" vertex="1" parent="ZtmMLVxZnoEotdnuMt8N-154">
          <mxGeometry x="30" width="150" height="30" as="geometry">
            <mxRectangle width="150" height="30" as="alternateBounds" />
          </mxGeometry>
        </mxCell>
        <mxCell id="ZtmMLVxZnoEotdnuMt8N-157" value="*Può avere un valore variabile o nullo finchè la vettura non è restituita" style="text;html=1;align=center;verticalAlign=middle;resizable=0;points=[];autosize=1;strokeColor=#9673a6;fillColor=#e1d5e7;" vertex="1" parent="1">
          <mxGeometry x="108" y="549" width="387" height="27" as="geometry" />
        </mxCell>
        <mxCell id="ZtmMLVxZnoEotdnuMt8N-158" value="Filiale" style="shape=table;startSize=30;container=1;collapsible=1;childLayout=tableLayout;fixedRows=1;rowLines=0;fontStyle=1;align=center;resizeLast=1;html=1;fillColor=#dae8fc;strokeColor=#6c8ebf;" vertex="1" parent="1">
          <mxGeometry x="693" y="495" width="180" height="150" as="geometry" />
        </mxCell>
        <mxCell id="ZtmMLVxZnoEotdnuMt8N-159" value="" style="shape=tableRow;horizontal=0;startSize=0;swimlaneHead=0;swimlaneBody=0;fillColor=none;collapsible=0;dropTarget=0;points=[[0,0.5],[1,0.5]];portConstraint=eastwest;top=0;left=0;right=0;bottom=1;" vertex="1" parent="ZtmMLVxZnoEotdnuMt8N-158">
          <mxGeometry y="30" width="180" height="30" as="geometry" />
        </mxCell>
        <mxCell id="ZtmMLVxZnoEotdnuMt8N-160" value="PK" style="shape=partialRectangle;connectable=0;fillColor=#fff2cc;top=0;left=0;bottom=0;right=0;fontStyle=1;overflow=hidden;whiteSpace=wrap;html=1;strokeColor=#d6b656;" vertex="1" parent="ZtmMLVxZnoEotdnuMt8N-159">
          <mxGeometry width="30" height="30" as="geometry">
            <mxRectangle width="30" height="30" as="alternateBounds" />
          </mxGeometry>
        </mxCell>
        <mxCell id="ZtmMLVxZnoEotdnuMt8N-161" value="ID_Filiale" style="shape=partialRectangle;connectable=0;fillColor=#fff2cc;top=0;left=0;bottom=0;right=0;align=left;spacingLeft=6;fontStyle=5;overflow=hidden;whiteSpace=wrap;html=1;strokeColor=#d6b656;" vertex="1" parent="ZtmMLVxZnoEotdnuMt8N-159">
          <mxGeometry x="30" width="150" height="30" as="geometry">
            <mxRectangle width="150" height="30" as="alternateBounds" />
          </mxGeometry>
        </mxCell>
        <mxCell id="ZtmMLVxZnoEotdnuMt8N-162" value="" style="shape=tableRow;horizontal=0;startSize=0;swimlaneHead=0;swimlaneBody=0;fillColor=none;collapsible=0;dropTarget=0;points=[[0,0.5],[1,0.5]];portConstraint=eastwest;top=0;left=0;right=0;bottom=0;" vertex="1" parent="ZtmMLVxZnoEotdnuMt8N-158">
          <mxGeometry y="60" width="180" height="30" as="geometry" />
        </mxCell>
        <mxCell id="ZtmMLVxZnoEotdnuMt8N-163" value="" style="shape=partialRectangle;connectable=0;fillColor=none;top=0;left=0;bottom=0;right=0;editable=1;overflow=hidden;whiteSpace=wrap;html=1;" vertex="1" parent="ZtmMLVxZnoEotdnuMt8N-162">
          <mxGeometry width="30" height="30" as="geometry">
            <mxRectangle width="30" height="30" as="alternateBounds" />
          </mxGeometry>
        </mxCell>
        <mxCell id="ZtmMLVxZnoEotdnuMt8N-164" value="Città" style="shape=partialRectangle;connectable=0;fillColor=none;top=0;left=0;bottom=0;right=0;align=left;spacingLeft=6;overflow=hidden;whiteSpace=wrap;html=1;" vertex="1" parent="ZtmMLVxZnoEotdnuMt8N-162">
          <mxGeometry x="30" width="150" height="30" as="geometry">
            <mxRectangle width="150" height="30" as="alternateBounds" />
          </mxGeometry>
        </mxCell>
        <mxCell id="ZtmMLVxZnoEotdnuMt8N-165" value="" style="shape=tableRow;horizontal=0;startSize=0;swimlaneHead=0;swimlaneBody=0;fillColor=none;collapsible=0;dropTarget=0;points=[[0,0.5],[1,0.5]];portConstraint=eastwest;top=0;left=0;right=0;bottom=0;" vertex="1" parent="ZtmMLVxZnoEotdnuMt8N-158">
          <mxGeometry y="90" width="180" height="30" as="geometry" />
        </mxCell>
        <mxCell id="ZtmMLVxZnoEotdnuMt8N-166" value="" style="shape=partialRectangle;connectable=0;fillColor=none;top=0;left=0;bottom=0;right=0;editable=1;overflow=hidden;whiteSpace=wrap;html=1;" vertex="1" parent="ZtmMLVxZnoEotdnuMt8N-165">
          <mxGeometry width="30" height="30" as="geometry">
            <mxRectangle width="30" height="30" as="alternateBounds" />
          </mxGeometry>
        </mxCell>
        <mxCell id="ZtmMLVxZnoEotdnuMt8N-167" value="Indirizzo" style="shape=partialRectangle;connectable=0;fillColor=none;top=0;left=0;bottom=0;right=0;align=left;spacingLeft=6;overflow=hidden;whiteSpace=wrap;html=1;" vertex="1" parent="ZtmMLVxZnoEotdnuMt8N-165">
          <mxGeometry x="30" width="150" height="30" as="geometry">
            <mxRectangle width="150" height="30" as="alternateBounds" />
          </mxGeometry>
        </mxCell>
        <mxCell id="ZtmMLVxZnoEotdnuMt8N-168" value="" style="shape=tableRow;horizontal=0;startSize=0;swimlaneHead=0;swimlaneBody=0;fillColor=none;collapsible=0;dropTarget=0;points=[[0,0.5],[1,0.5]];portConstraint=eastwest;top=0;left=0;right=0;bottom=0;" vertex="1" parent="ZtmMLVxZnoEotdnuMt8N-158">
          <mxGeometry y="120" width="180" height="30" as="geometry" />
        </mxCell>
        <mxCell id="ZtmMLVxZnoEotdnuMt8N-169" value="" style="shape=partialRectangle;connectable=0;fillColor=none;top=0;left=0;bottom=0;right=0;editable=1;overflow=hidden;whiteSpace=wrap;html=1;" vertex="1" parent="ZtmMLVxZnoEotdnuMt8N-168">
          <mxGeometry width="30" height="30" as="geometry">
            <mxRectangle width="30" height="30" as="alternateBounds" />
          </mxGeometry>
        </mxCell>
        <mxCell id="ZtmMLVxZnoEotdnuMt8N-170" value="Email" style="shape=partialRectangle;connectable=0;fillColor=none;top=0;left=0;bottom=0;right=0;align=left;spacingLeft=6;overflow=hidden;whiteSpace=wrap;html=1;" vertex="1" parent="ZtmMLVxZnoEotdnuMt8N-168">
          <mxGeometry x="30" width="150" height="30" as="geometry">
            <mxRectangle width="150" height="30" as="alternateBounds" />
          </mxGeometry>
        </mxCell>
        <mxCell id="ZtmMLVxZnoEotdnuMt8N-171" value="" style="edgeStyle=entityRelationEdgeStyle;fontSize=12;html=1;endArrow=ERoneToMany;rounded=0;exitX=0.989;exitY=0.8;exitDx=0;exitDy=0;exitPerimeter=0;entryX=0;entryY=0.5;entryDx=0;entryDy=0;" edge="1" parent="1" source="ZtmMLVxZnoEotdnuMt8N-94" target="ZtmMLVxZnoEotdnuMt8N-172">
          <mxGeometry width="100" height="100" relative="1" as="geometry">
            <mxPoint x="369" y="433" as="sourcePoint" />
            <mxPoint x="405" y="297" as="targetPoint" />
          </mxGeometry>
        </mxCell>
        <mxCell id="ZtmMLVxZnoEotdnuMt8N-178" value="1,N" style="edgeLabel;html=1;align=center;verticalAlign=middle;resizable=0;points=[];" vertex="1" connectable="0" parent="ZtmMLVxZnoEotdnuMt8N-171">
          <mxGeometry x="-0.0187" y="4" relative="1" as="geometry">
            <mxPoint as="offset" />
          </mxGeometry>
        </mxCell>
        <mxCell id="ZtmMLVxZnoEotdnuMt8N-179" value="" style="edgeStyle=entityRelationEdgeStyle;fontSize=12;html=1;endArrow=ERoneToMany;rounded=0;exitX=0;exitY=0.5;exitDx=0;exitDy=0;" edge="1" parent="1" source="ZtmMLVxZnoEotdnuMt8N-119" target="ZtmMLVxZnoEotdnuMt8N-175">
          <mxGeometry width="100" height="100" relative="1" as="geometry">
            <mxPoint x="369" y="433" as="sourcePoint" />
            <mxPoint x="469" y="333" as="targetPoint" />
          </mxGeometry>
        </mxCell>
        <mxCell id="ZtmMLVxZnoEotdnuMt8N-180" value="N,1" style="edgeLabel;html=1;align=center;verticalAlign=middle;resizable=0;points=[];" vertex="1" connectable="0" parent="ZtmMLVxZnoEotdnuMt8N-179">
          <mxGeometry x="-0.0131" y="-2" relative="1" as="geometry">
            <mxPoint as="offset" />
          </mxGeometry>
        </mxCell>
        <mxCell id="ZtmMLVxZnoEotdnuMt8N-188" value="" style="edgeStyle=entityRelationEdgeStyle;fontSize=12;html=1;endArrow=ERoneToMany;rounded=0;exitX=1;exitY=0.5;exitDx=0;exitDy=0;" edge="1" parent="1" source="ZtmMLVxZnoEotdnuMt8N-159" target="ZtmMLVxZnoEotdnuMt8N-185">
          <mxGeometry width="100" height="100" relative="1" as="geometry">
            <mxPoint x="369" y="433" as="sourcePoint" />
            <mxPoint x="469" y="333" as="targetPoint" />
            <Array as="points">
              <mxPoint x="930" y="441" />
              <mxPoint x="936" y="441" />
            </Array>
          </mxGeometry>
        </mxCell>
        <mxCell id="ZtmMLVxZnoEotdnuMt8N-189" value="N&lt;div&gt;1&lt;/div&gt;" style="edgeLabel;html=1;align=center;verticalAlign=middle;resizable=0;points=[];" vertex="1" connectable="0" parent="ZtmMLVxZnoEotdnuMt8N-188">
          <mxGeometry x="-0.0341" relative="1" as="geometry">
            <mxPoint as="offset" />
          </mxGeometry>
        </mxCell>
        <mxCell id="ZtmMLVxZnoEotdnuMt8N-190" value="E/R - NOLEGGIO AUTO&lt;div&gt;MODELLO CONCETTUALE&lt;/div&gt;" style="text;html=1;align=center;verticalAlign=middle;resizable=0;points=[];autosize=1;strokeColor=#10739e;fillColor=#b1ddf0;fontSize=20;fontStyle=1" vertex="1" parent="1">
          <mxGeometry x="396.5" y="5" width="270" height="63" as="geometry" />
        </mxCell>
        <mxCell id="ZtmMLVxZnoEotdnuMt8N-191" value="&lt;font style=&quot;font-size: 20px;&quot;&gt;&lt;b&gt;&lt;font style=&quot;&quot;&gt;MODELLO &lt;/font&gt;LOGICO&lt;/b&gt;&lt;/font&gt;" style="text;html=1;align=center;verticalAlign=middle;resizable=0;points=[];autosize=1;strokeColor=#36393d;fillColor=#cce5ff;" vertex="1" parent="1">
          <mxGeometry x="428" y="684" width="207" height="36" as="geometry" />
        </mxCell>
        <mxCell id="ZtmMLVxZnoEotdnuMt8N-213" value="" style="edgeStyle=orthogonalEdgeStyle;rounded=0;orthogonalLoop=1;jettySize=auto;html=1;flowAnimation=1;strokeWidth=2;" edge="1" parent="1" source="ZtmMLVxZnoEotdnuMt8N-194" target="ZtmMLVxZnoEotdnuMt8N-199">
          <mxGeometry relative="1" as="geometry" />
        </mxCell>
        <mxCell id="ZtmMLVxZnoEotdnuMt8N-194" value="&lt;b&gt;CREATE TABLE&lt;/b&gt; Cliente (&lt;div&gt;ID_Cliente &lt;b&gt;INT&lt;/b&gt;&lt;/div&gt;&lt;div&gt;Nome &lt;b&gt;VARCHAR (30)&lt;/b&gt;&lt;/div&gt;&lt;div&gt;Cognome &lt;b&gt;VARCHAR (30)&lt;/b&gt;&lt;/div&gt;&lt;div&gt;Data_di_nascita &lt;b&gt;DATE&lt;/b&gt;&lt;/div&gt;&lt;div&gt;Email &lt;b&gt;VARCHAR (50)&lt;/b&gt;&lt;/div&gt;&lt;div&gt;Telefono&lt;b&gt;&amp;nbsp;VARCHAR (10)&lt;/b&gt;&lt;/div&gt;&lt;div&gt;Numero_Patente &lt;b&gt;VARCHAR (12)&lt;/b&gt;&lt;/div&gt;&lt;div&gt;Patente_Scadenza &lt;b&gt;DATE&lt;/b&gt;&lt;/div&gt;&lt;div&gt;&lt;b&gt;CONSTRAINT &lt;/b&gt;PK_Cliente &lt;b&gt;PRIMARY KEY&lt;/b&gt; (ID_Cliente))&lt;/div&gt;&lt;div&gt;&lt;b&gt;&lt;br&gt;&lt;/b&gt;&lt;/div&gt;&lt;div&gt;&lt;b&gt;&lt;br&gt;&lt;/b&gt;&lt;/div&gt;" style="text;html=1;align=left;verticalAlign=middle;resizable=0;points=[];autosize=1;strokeColor=#36393d;fillColor=#ffcccc;" vertex="1" parent="1">
          <mxGeometry x="18" y="747" width="324" height="189" as="geometry" />
        </mxCell>
        <mxCell id="ZtmMLVxZnoEotdnuMt8N-195" value="&lt;b&gt;CREATE TABLE&lt;/b&gt; Noleggio (&lt;div&gt;Numero_Contratto &lt;b&gt;INT&lt;/b&gt;&lt;/div&gt;&lt;div&gt;ID_Cliente &lt;b&gt;INT&lt;/b&gt;&lt;/div&gt;&lt;div&gt;Targa &lt;b&gt;VARCHAR (7)&lt;/b&gt;&lt;/div&gt;&lt;div&gt;Data_Inizio &lt;b&gt;DATE&lt;/b&gt;&lt;/div&gt;&lt;div&gt;Data_fine_prevista &lt;b&gt;DATE&lt;/b&gt;&lt;/div&gt;&lt;div&gt;Data_fine_effettiva &lt;b&gt;DATE&lt;/b&gt;&lt;/div&gt;&lt;div&gt;Costo_totale &lt;b&gt;DECIMAL (8,2)&lt;/b&gt;&lt;/div&gt;&lt;div&gt;&lt;b&gt;CONSTRAINT &lt;/b&gt;PK_Noleggio &lt;b&gt;PRIMARY KEY&amp;nbsp;&lt;/b&gt;(Numero_Contratto)&lt;/div&gt;&lt;div&gt;&lt;b&gt;CONSTRAINT &lt;/b&gt;FK_Cliente_Noleggio &lt;b&gt;FOREIGN KEY&lt;/b&gt; (ID_Cliente)&amp;nbsp;&lt;/div&gt;&lt;div&gt;&lt;b&gt;REFERENCES &lt;/b&gt;Cliente (ID_Cliente)&lt;/div&gt;&lt;div&gt;&lt;b&gt;CONSTRAINT &lt;/b&gt;FK_Veicoli_Noleggio &lt;b&gt;FOREIGN KEY&lt;/b&gt; (Targa)&lt;/div&gt;&lt;div&gt;&lt;b&gt;REFERENCES &lt;/b&gt;Veicoli (Targa))&lt;br&gt;&lt;div&gt;&lt;br&gt;&lt;/div&gt;&lt;/div&gt;" style="text;html=1;align=left;verticalAlign=middle;resizable=0;points=[];autosize=1;strokeColor=#36393d;fillColor=#ffcc99;" vertex="1" parent="1">
          <mxGeometry x="369" y="747" width="378" height="216" as="geometry" />
        </mxCell>
        <mxCell id="ZtmMLVxZnoEotdnuMt8N-196" value="&lt;b&gt;CREATE TABLE&lt;/b&gt; Veicoli (&lt;div&gt;Targa &lt;b&gt;VARCHAR (7)&lt;/b&gt;&lt;/div&gt;&lt;div&gt;ID_Filiale &lt;b&gt;INT&lt;/b&gt;&lt;/div&gt;&lt;div&gt;Brand &lt;b&gt;VARCHAR (20)&lt;/b&gt;&lt;/div&gt;&lt;div&gt;Modello &lt;b&gt;VARCHAR (40)&lt;/b&gt;&lt;/div&gt;&lt;div&gt;Anno &lt;b&gt;INT&lt;/b&gt;&lt;/div&gt;&lt;div&gt;Categoria &lt;b&gt;VARCHAR (20)&lt;/b&gt;&lt;/div&gt;&lt;div&gt;Chilometraggio &lt;b&gt;DECIMAL (8,2)&lt;/b&gt;&lt;/div&gt;&lt;div&gt;Stato &lt;b&gt;VARCHAR (20)&lt;/b&gt;&lt;/div&gt;&lt;div&gt;&lt;b&gt;CONSTRAINT &lt;/b&gt;PK_Veicoli&lt;span style=&quot;background-color: transparent; color: light-dark(rgb(0, 0, 0), rgb(255, 255, 255));&quot;&gt;&amp;nbsp;&lt;b&gt;PRIMARY KEY&lt;/b&gt; (Targa)&lt;/span&gt;&lt;/div&gt;&lt;div&gt;&lt;span style=&quot;background-color: transparent; color: light-dark(rgb(0, 0, 0), rgb(255, 255, 255));&quot;&gt;&lt;b&gt;CONSTRAINT &lt;/b&gt;FK_Filiale_Veicoli &lt;b&gt;FOREIGN KEY&lt;/b&gt; (ID_Filiale)&lt;/span&gt;&lt;/div&gt;&lt;div&gt;&lt;span style=&quot;background-color: transparent; color: light-dark(rgb(0, 0, 0), rgb(255, 255, 255));&quot;&gt;&lt;b&gt;REFENCES &lt;/b&gt;Filiale (ID_Filiale))&amp;nbsp;&lt;/span&gt;&lt;/div&gt;" style="text;html=1;align=left;verticalAlign=middle;resizable=0;points=[];autosize=1;strokeColor=#36393d;fillColor=#f9f7ed;" vertex="1" parent="1">
          <mxGeometry x="765" y="747" width="342" height="189" as="geometry" />
        </mxCell>
        <mxCell id="ZtmMLVxZnoEotdnuMt8N-197" value="&lt;b&gt;CREATE TABLE&lt;/b&gt; Filiale (&lt;div&gt;ID_Filiale &lt;b&gt;INT&lt;/b&gt;&lt;/div&gt;&lt;div&gt;Città &lt;b&gt;VARCHAR (20)&lt;/b&gt;&lt;/div&gt;&lt;div&gt;Indirizzo &lt;b&gt;VARCHAR (50)&lt;/b&gt;&lt;/div&gt;&lt;div&gt;&lt;span style=&quot;background-color: transparent; color: light-dark(rgb(0, 0, 0), rgb(255, 255, 255));&quot;&gt;Email &lt;b&gt;VARCHAR (50)&lt;/b&gt;&lt;/span&gt;&lt;/div&gt;&lt;div&gt;&lt;span style=&quot;background-color: transparent; color: light-dark(rgb(0, 0, 0), rgb(255, 255, 255));&quot;&gt;&lt;b&gt;CONSTRAINT &lt;/b&gt;PK_Filiale PRIMARY KEY (ID_Filiale))&lt;/span&gt;&lt;/div&gt;&lt;div&gt;&lt;br&gt;&lt;/div&gt;" style="text;html=1;align=left;verticalAlign=middle;resizable=0;points=[];autosize=1;strokeColor=#36393d;fillColor=#cdeb8b;" vertex="1" parent="1">
          <mxGeometry x="774" y="999" width="306" height="117" as="geometry" />
        </mxCell>
        <mxCell id="ZtmMLVxZnoEotdnuMt8N-199" value="&lt;b&gt;INSERT INTO&lt;/b&gt; Cliente &lt;b&gt;VALUES&lt;/b&gt;&lt;div&gt;(&lt;b&gt;1&lt;/b&gt;, &#39;Mario&#39;, &#39;Rossi&#39;, &#39;&lt;b&gt;01-01-1990&lt;/b&gt;&#39;, &#39;mariorossi@gmail.com&#39;,&#39;3331234567&#39;,&#39;ABC123456&#39;,&#39;&lt;b&gt;01-01-2027&lt;/b&gt;&#39;)&lt;/div&gt;&lt;div&gt;, (&lt;b&gt;2&lt;/b&gt;, &#39;Giuseppe&#39;,Verdi&#39;,&#39;&lt;b&gt;02-02-1992&#39;&lt;/b&gt;,&#39;giuseppeverdi@gmail.com&#39;,&#39;123456789&#39;,&#39;DEF789456&#39;,&#39;&lt;b&gt;01-01-2030&lt;/b&gt;&#39;)&amp;nbsp;&lt;/div&gt;" style="text;html=1;align=center;verticalAlign=middle;resizable=0;points=[];autosize=1;strokeColor=#36393d;fillColor=#ffcccc;" vertex="1" parent="1">
          <mxGeometry x="-207" y="1008" width="567" height="54" as="geometry" />
        </mxCell>
        <mxCell id="ZtmMLVxZnoEotdnuMt8N-202" value="" style="endArrow=classic;html=1;rounded=0;exitX=0.431;exitY=0.986;exitDx=0;exitDy=0;exitPerimeter=0;fillColor=#ffcc99;strokeColor=#36393d;flowAnimation=1;strokeWidth=2;" edge="1" parent="1" source="ZtmMLVxZnoEotdnuMt8N-195">
          <mxGeometry width="50" height="50" relative="1" as="geometry">
            <mxPoint x="531" y="982.1800000000001" as="sourcePoint" />
            <mxPoint x="144" y="1188" as="targetPoint" />
            <Array as="points">
              <mxPoint x="342" y="1089" />
            </Array>
          </mxGeometry>
        </mxCell>
        <mxCell id="ZtmMLVxZnoEotdnuMt8N-203" value="&lt;b&gt;INSERT INTO&lt;/b&gt; Noleggio &lt;b&gt;VALUES&lt;/b&gt;&lt;div&gt;(1, 1, &#39;AB123CD&#39;, &#39;05-05-2025&#39;, &#39;10-05-2025&#39;, &lt;b&gt;?, 150.00&lt;/b&gt;)&lt;/div&gt;&lt;div&gt;(2, 2, EF456GH&#39;, &#39;11-05-2025-, ?, &lt;b&gt;200.00&lt;/b&gt;)&lt;/div&gt;" style="text;html=1;align=center;verticalAlign=middle;resizable=0;points=[];autosize=1;strokeColor=#36393d;fillColor=#ffcc99;" vertex="1" parent="1">
          <mxGeometry x="-172" y="1157" width="315" height="54" as="geometry" />
        </mxCell>
        <mxCell id="ZtmMLVxZnoEotdnuMt8N-208" value="" style="endArrow=classic;html=1;rounded=0;fillColor=#eeeeee;strokeColor=#36393d;flowAnimation=1;exitX=0.135;exitY=1.005;exitDx=0;exitDy=0;exitPerimeter=0;entryX=0.536;entryY=0;entryDx=0;entryDy=0;entryPerimeter=0;endSize=6;strokeWidth=2;" edge="1" parent="1" source="ZtmMLVxZnoEotdnuMt8N-196" target="ZtmMLVxZnoEotdnuMt8N-209">
          <mxGeometry width="50" height="50" relative="1" as="geometry">
            <mxPoint x="783" y="945" as="sourcePoint" />
            <mxPoint x="540" y="1125" as="targetPoint" />
          </mxGeometry>
        </mxCell>
        <mxCell id="ZtmMLVxZnoEotdnuMt8N-209" value="&lt;b&gt;INSERT INTO&lt;/b&gt; Veicoli &lt;b&gt;VALUES&lt;/b&gt;&lt;div&gt;(&#39;AB123CD&#39;, &#39;1&#39;, &#39;Fiat&#39;, &#39;Panda&#39;, &#39;&lt;b&gt;2014&lt;/b&gt;&#39;, &#39;Piccola&#39;, &#39;&lt;b&gt;80000&lt;/b&gt;, &#39;Disponibile&#39;)&lt;/div&gt;&lt;div&gt;(&#39;EF456GH&#39;, 2, &#39;Mercedes&#39;, &#39; Vito&#39;, &#39;&lt;b&gt;2015&lt;/b&gt;&#39;, &#39;Minivan&#39;, &#39;&lt;b&gt;100000&lt;/b&gt;&#39;, &#39;Noleggiata&#39;)&lt;/div&gt;" style="text;html=1;align=center;verticalAlign=middle;resizable=0;points=[];autosize=1;strokeColor=#36393d;fillColor=#f9f7ed;" vertex="1" parent="1">
          <mxGeometry x="309" y="1134" width="414" height="54" as="geometry" />
        </mxCell>
        <mxCell id="ZtmMLVxZnoEotdnuMt8N-210" value="" style="endArrow=classic;html=1;rounded=0;exitX=0.373;exitY=1;exitDx=0;exitDy=0;exitPerimeter=0;fillColor=#cdeb8b;strokeColor=#000000;flowAnimation=1;strokeWidth=2;" edge="1" parent="1" source="ZtmMLVxZnoEotdnuMt8N-197">
          <mxGeometry width="50" height="50" relative="1" as="geometry">
            <mxPoint x="459" y="1121" as="sourcePoint" />
            <mxPoint x="888" y="1269" as="targetPoint" />
          </mxGeometry>
        </mxCell>
        <mxCell id="ZtmMLVxZnoEotdnuMt8N-211" value="&lt;b&gt;INSERT INTO&lt;/b&gt; Filiale &lt;b&gt;VALUES&lt;/b&gt;&lt;div&gt;(&lt;b&gt;1&lt;/b&gt;, &#39;Palermo&#39;, &#39;Via Sicilia 4&#39;, &#39;palermo@noleggio.it&#39;)&lt;/div&gt;&lt;div&gt;(&lt;b&gt;2&lt;/b&gt;, &#39;Catania&#39;, &#39;Via Etna 5&#39;, &#39;catania@noleggio.it&#39;)&lt;/div&gt;" style="text;html=1;align=center;verticalAlign=middle;resizable=0;points=[];autosize=1;strokeColor=#36393d;fillColor=#cdeb8b;" vertex="1" parent="1">
          <mxGeometry x="729" y="1269" width="288" height="54" as="geometry" />
        </mxCell>
      </root>
    </mxGraphModel>
  </diagram>
</mxfile>
